<svg width="40" height="40" viewBox="0 0 40 40" fill="none" xmlns="http://www.w3.org/2000/svg">
<path fill-rule="evenodd" clip-rule="evenodd" d="M8.33333 1.66669C6.56524 1.66669 4.86955 2.36907 3.61931 3.61931C2.36907 4.86955 1.66669 6.56524 1.66669 8.33333V31.6667C1.66669 33.4348 2.36907 35.1305 3.61931 36.3807C4.86955 37.631 6.56524 38.3333 8.33333 38.3333H31.6667C33.4348 38.3333 35.1305 37.631 36.3807 36.3807C37.631 35.1305 38.3333 33.4348 38.3333 31.6667V8.33333C38.3333 6.56524 37.631 4.86955 36.3807 3.61931C35.1305 2.36907 33.4348 1.66669 31.6667 1.66669H8.33333ZM17.9833 7.50002C16.6767 7.50002 15.7233 7.99505 15.1084 8.76671C14.51 9.52002 14.28 10.4784 14.28 11.3551C14.28 11.8433 14.42 12.4433 14.6333 13.0433C14.85 13.6551 15.1584 14.3067 15.5284 14.91C15.8951 15.51 16.3367 16.0784 16.8284 16.5051C17.3117 16.9267 17.9033 17.2567 18.5584 17.2567C19.2584 17.2567 19.8167 16.8451 20.2284 16.3567C20.6433 15.8651 20.9767 15.2167 21.2351 14.56C21.7484 13.2551 22.03 11.74 22.0017 10.9233C21.9735 10.0261 21.5933 9.17588 20.9433 8.55671C20.2533 7.90167 19.2567 7.50002 17.9851 7.50002H17.9833ZM31.73 15.3533C31.3633 14.2533 30.5333 13.1967 29.4 12.6484C28.235 12.0851 26.8 12.0817 25.3333 13.0184C24.295 13.6817 23.1833 14.7733 22.4251 15.9017C22.0451 16.4667 21.7367 17.0651 21.58 17.6467C21.4251 18.2251 21.4033 18.8484 21.6933 19.3967C21.9933 19.9633 22.6051 20.3084 23.2217 20.5233C23.8617 20.7484 24.6251 20.8767 25.3951 20.9317C26.9084 21.04 28.6033 20.8717 29.5584 20.4484C31.4833 19.5917 32.4717 17.5817 31.73 15.3533ZM27.6567 25.1751C27.37 24.7484 26.91 24.3351 26.4 23.9733C25.8535 23.5905 25.27 23.2633 24.6584 22.9967C24.0707 22.7311 23.452 22.5407 22.8167 22.43C22.2533 22.3433 21.6333 22.3467 21.1517 22.63C20.6251 22.9384 20.3784 23.5517 20.26 24.1133C20.138 24.7676 20.1077 25.4357 20.17 26.0984C20.2251 26.7933 20.3551 27.5067 20.5467 28.1333C20.7333 28.745 20.9967 29.3333 21.3467 29.725C22.0933 30.5633 22.9584 31.0851 23.92 31.2017C24.88 31.3184 25.8533 31.0233 26.7933 30.3951C27.7767 29.7384 28.3133 28.87 28.4217 27.9084C28.5284 26.9651 28.215 26.0133 27.6567 25.1751ZM17.015 22.5017C16.545 22.2233 15.9533 22.28 15.4567 22.4067C14.9267 22.54 14.3451 22.7933 13.7767 23.0984C12.6417 23.7084 11.46 24.5767 10.7267 25.31C9.37002 26.6684 9.11836 28.05 9.43167 29.23C9.73167 30.3584 10.5233 31.2133 11.1017 31.6517C12.8851 33.005 15.6367 32.7617 17.1767 30.7684C17.6117 30.2017 17.8833 29.45 18.0433 28.6717C18.2033 27.8867 18.26 27.03 18.2333 26.2217C18.2164 25.4722 18.1124 24.7272 17.9233 24.0017C17.8439 23.7035 17.7315 23.4151 17.5884 23.1417C17.4564 22.8819 17.2588 22.6613 17.015 22.5017ZM12.2217 15.4384C11.2484 15.1133 10.2984 15.1433 9.53167 15.5517C8.75505 15.9651 8.24505 16.7233 8.08671 17.6851C7.97167 18.3817 7.97836 19.3133 8.39002 20.1017C8.83002 20.9417 9.68333 21.5151 11.0233 21.5151C12.1151 21.5151 13.1784 21.4267 14.02 21.1717C14.8367 20.9217 15.6284 20.4533 15.82 19.5651C15.925 19.0867 15.7751 18.61 15.5633 18.2117C15.3233 17.7819 15.0212 17.3899 14.6667 17.0484C13.9584 16.34 13.0167 15.7033 12.2217 15.4384Z" fill="black"/>
</svg>
